# xmcd
#
# Track frame offsets:
#	150
#	25649
#	44086
#	67508
#	86891
#	101216
#	127568
#	147665
#	161150
#	175203
#	190013
#	215343
#	228651
#	247366
#	262744
#	277382
#	295657
#
# Disc length: 4185 seconds
#
# Revision: 0
# Processed by: cddbd v1.5.2PL0 Copyright (c) Steve Scherf et al.
# Submitted via: dBpowerAMP V4.0
#
DISCID=00105711
DTITLE=Geno Washington - Whats In The Pot
DYEAR=1997
DGENRE=Blues
TTITLE0=Sneakers
TTITLE1=Broom
TTITLE2=Mojo
TTITLE3=Rooster
TTITLE4=Dimples
TTITLE5=Slow
TTITLE6=6345789
TTITLE7=Kanses
TTITLE8=Baby
TTITLE9=Gloria
TTITLE10=Spell
TTITLE11=Everybody
TTITLE12=Lovin
TTITLE13=Lucille
TTITLE14=Fight
TTITLE15=Jive
TTITLE16=Say
EXTD=
EXTT0=
EXTT1=
EXTT2=
EXTT3=
EXTT4=
EXTT5=
EXTT6=
EXTT7=
EXTT8=
EXTT9=
EXTT10=
EXTT11=
EXTT12=
EXTT13=
EXTT14=
EXTT15=
EXTT16=
PLAYORDER=
